<svg xmlns="http://www.w3.org/2000/svg" xmlns:xlink="http://www.w3.org/1999/xlink" viewBox="800 0 180 180">
  <defs>
    <style>
      .cls-1 {
        clip-path: url(#clip-join-active);
      }

      .cls-2 {
        fill: none;
      }

      .cls-3 {
        fill: #b9f4ee;
      }

      .cls-4, .cls-6 {
        fill: #00bfaa;
      }

      .cls-5, .cls-6 {
        stroke: none;
      }

      .cls-7 {
        fill: #fff;
      }
    </style>
    <clipPath id="clip-join-active">
      <rect x="800" width="180" height="180"/>
    </clipPath>
  </defs>
  <g id="join-active" class="cls-1">
    <rect class="cls-7" x="800" width="180" height="180"/>
    <g id="Path_37" data-name="Path 37" class="cls-2" transform="translate(834.769 26.361)">
      <path class="cls-5" d="M110.462,95.653V31.884L55.19,0,16.214,22.275V41.251L0,50.676V95.653l55.19,31.884Z"/>
      <path class="cls-6" d="M 55.19153213500977 124.0728988647461 L 107.4618453979492 93.91986846923828 L 107.4618453979492 33.61700439453125 L 55.18347549438477 3.459365844726562 L 19.21418190002441 24.0161190032959 L 19.21418190002441 41.25068664550781 L 19.21418190002441 42.97682952880859 L 17.72186279296875 43.84432601928711 L 3.00000262260437 52.40212249755859 L 3.00000262260437 93.92115020751953 L 55.19153213500977 124.0728988647461 M 55.1904411315918 127.5369110107422 L 2.69897464022506e-06 95.65264892578125 L 2.69897464022506e-06 50.67596817016602 L 16.21418190002441 41.25068664550781 L 16.21418190002441 22.2752685546875 L 55.1904411315918 7.875976734794676e-06 L 110.4618453979492 31.88422775268555 L 110.4618453979492 95.65264892578125 L 55.1904411315918 127.5369110107422 Z"/>
    </g>
    <g id="Path_31" data-name="Path 31" class="cls-3" transform="translate(872 7)">
      <path class="cls-5" d="M 17.98735427856445 39.83283233642578 L 1.5 30.30786895751953 L 1.5 11.25695323944092 L 17.98735427856445 1.732007622718811 L 34.5 11.25759506225586 L 34.5 30.30722618103027 L 17.98735427856445 39.83283233642578 Z"/>
      <path class="cls-6" d="M 17.98791122436523 38.10082244873047 L 33 29.44083786010742 L 33 12.12398433685303 L 17.98791122436523 3.464017629623413 L 3 12.12271690368652 L 3 29.44210433959961 L 17.98791122436523 38.10082244873047 M 17.9868106842041 41.56483459472656 L 0 31.17361450195312 L 0 10.39120578765869 L 17.9868106842041 5.390014848671854e-06 L 36 10.39120578765869 L 36 31.17361450195312 L 17.9868106842041 41.56483459472656 Z"/>
    </g>
    <g id="Path_32" data-name="Path 32" class="cls-3" transform="translate(872 131.7)">
      <path class="cls-5" d="M 17.98735427856445 39.83283233642578 L 1.5 30.30786895751953 L 1.5 11.25695323944092 L 17.98735427856445 1.732007622718811 L 34.5 11.25759506225586 L 34.5 30.30722618103027 L 17.98735427856445 39.83283233642578 Z"/>
      <path class="cls-6" d="M 17.98791122436523 38.10082244873047 L 33 29.44083786010742 L 33 12.12398433685303 L 17.98791122436523 3.464017629623413 L 3 12.12271690368652 L 3 29.44210433959961 L 17.98791122436523 38.10082244873047 M 17.9868106842041 41.56483459472656 L 0 31.17361450195312 L 0 10.39120578765869 L 17.9868106842041 5.390014848671854e-06 L 36 10.39120578765869 L 36 31.17361450195312 L 17.9868106842041 41.56483459472656 Z"/>
    </g>
    <g id="Path_33" data-name="Path 33" class="cls-3" transform="translate(818 100.5)">
      <path class="cls-5" d="M 17.98735427856445 39.83283233642578 L 1.5 30.30786895751953 L 1.5 11.25695323944092 L 17.98735427856445 1.732007622718811 L 34.5 11.25759506225586 L 34.5 30.30722618103027 L 17.98735427856445 39.83283233642578 Z"/>
      <path class="cls-6" d="M 17.98791122436523 38.10082244873047 L 33 29.44083786010742 L 33 12.12398433685303 L 17.98791122436523 3.464017629623413 L 3 12.12271690368652 L 3 29.44210433959961 L 17.98791122436523 38.10082244873047 M 17.9868106842041 41.56483459472656 L 0 31.17361450195312 L 0 10.39120578765869 L 17.9868106842041 5.390014848671854e-06 L 36 10.39120578765869 L 36 31.17361450195312 L 17.9868106842041 41.56483459472656 Z"/>
    </g>
    <g id="Path_36" data-name="Path 36" class="cls-2" transform="translate(818 38.2)">
      <path class="cls-5" d="M36,31.174V10.391L17.987,0,0,10.391V31.174L17.987,41.565Z"/>
      <path class="cls-6" d="M 17.98791122436523 38.10082244873047 L 33 29.44083786010742 L 33 12.12398433685303 L 17.98791122436523 3.464017629623413 L 3 12.12271690368652 L 3 29.44210433959961 L 17.98791122436523 38.10082244873047 M 17.9868106842041 41.56483459472656 L 0 31.17361450195312 L 0 10.39120578765869 L 17.9868106842041 5.390014848671854e-06 L 36 10.39120578765869 L 36 31.17361450195312 L 17.9868106842041 41.56483459472656 Z"/>
    </g>
    <g id="Path_34" data-name="Path 34" class="cls-3" transform="translate(926 100.5)">
      <path class="cls-5" d="M 17.98735427856445 39.83283233642578 L 1.5 30.30786895751953 L 1.5 11.25695323944092 L 17.98735427856445 1.732007622718811 L 34.5 11.25759506225586 L 34.5 30.30722618103027 L 17.98735427856445 39.83283233642578 Z"/>
      <path class="cls-6" d="M 17.98791122436523 38.10082244873047 L 33 29.44083786010742 L 33 12.12398433685303 L 17.98791122436523 3.464017629623413 L 3 12.12271690368652 L 3 29.44210433959961 L 17.98791122436523 38.10082244873047 M 17.9868106842041 41.56483459472656 L 0 31.17361450195312 L 0 10.39120578765869 L 17.9868106842041 5.390014848671854e-06 L 36 10.39120578765869 L 36 31.17361450195312 L 17.9868106842041 41.56483459472656 Z"/>
    </g>
    <g id="Path_35" data-name="Path 35" class="cls-3" transform="translate(926 38.2)">
      <path class="cls-5" d="M 17.98735427856445 39.83283233642578 L 1.5 30.30786895751953 L 1.5 11.25695323944092 L 17.98735427856445 1.732007622718811 L 34.5 11.25759506225586 L 34.5 30.30722618103027 L 17.98735427856445 39.83283233642578 Z"/>
      <path class="cls-6" d="M 17.98791122436523 38.10082244873047 L 33 29.44083786010742 L 33 12.12398433685303 L 17.98791122436523 3.464017629623413 L 3 12.12271690368652 L 3 29.44210433959961 L 17.98791122436523 38.10082244873047 M 17.9868106842041 41.56483459472656 L 0 31.17361450195312 L 0 10.39120578765869 L 17.9868106842041 5.390014848671854e-06 L 36 10.39120578765869 L 36 31.17361450195312 L 17.9868106842041 41.56483459472656 Z"/>
    </g>
    <rect id="Rectangle_3" data-name="Rectangle 3" class="cls-4" width="3" height="88" transform="translate(888.5 46)"/>
    <rect id="Rectangle_4" data-name="Rectangle 4" class="cls-4" width="3" height="88" transform="translate(927.355 66.701) rotate(60)"/>
    <rect id="Rectangle_5" data-name="Rectangle 5" class="cls-4" width="3" height="88" transform="translate(928.855 110.701) rotate(120)"/>
    <g id="Path_38" data-name="Path 38" class="cls-3" transform="translate(872 69)">
      <path class="cls-5" d="M 17.98735427856445 39.83283233642578 L 1.5 30.30786895751953 L 1.5 11.25695323944092 L 17.98735427856445 1.732007622718811 L 34.5 11.25759506225586 L 34.5 30.30722618103027 L 17.98735427856445 39.83283233642578 Z"/>
      <path class="cls-6" d="M 17.98791122436523 38.10082244873047 L 33 29.44083786010742 L 33 12.12398433685303 L 17.98791122436523 3.464017629623413 L 3 12.12271690368652 L 3 29.44210433959961 L 17.98791122436523 38.10082244873047 M 17.9868106842041 41.56483459472656 L 0 31.17361450195312 L 0 10.39120578765869 L 17.9868106842041 5.390014848671854e-06 L 36 10.39120578765869 L 36 31.17361450195312 L 17.9868106842041 41.56483459472656 Z"/>
    </g>
  </g>
</svg>
