<svg xmlns="http://www.w3.org/2000/svg" xmlns:xlink="http://www.w3.org/1999/xlink" viewBox="0 0 180 180">
  <defs>
    <style>
      .cls-1 {
        clip-path: url(#clip-testnet);
      }

      .cls-2 {
        fill: none;
      }

      .cls-3 {
        fill: #a3a9b8;
      }

      .cls-4 {
        fill: #f2f2f2;
      }

      .cls-4, .cls-5 {
        fill-rule: evenodd;
      }

      .cls-5 {
        fill: #fff;
      }
    </style>
    <clipPath id="clip-testnet">
      <rect width="180" height="180"/>
    </clipPath>
  </defs>
  <g id="testnet" class="cls-1">
    <g id="Group_3086" data-name="Group 3086">
      <rect id="Rectangle_3739" data-name="Rectangle 3739" class="cls-2" width="180" height="180"/>
      <path id="Subtraction_48" data-name="Subtraction 48" class="cls-3" d="M-195.649-2403.7h0l-55.041-31.777v-40.857l1.954,1.128,2.047-1.182v38.6l51.041,29.469,51.042-29.469v-58.937l-51.042-29.469-33.429,19.3v-2.363l-1.954-1.128,35.383-20.429,55.041,31.778v63.557l-55.041,31.777Z" transform="translate(286.394 2557.472)"/>
      <g id="Group_3085" data-name="Group 3085">
        <path id="Path_5177" data-name="Path 5177" class="cls-4" d="M76.352-49.006,56.693-37.656v22.7L76.352-3.606,96.01-14.956v-22.7Z" transform="translate(14.394 177.817)"/>
        <path id="Path_5179" data-name="Path 5179" class="cls-5" d="M129.439-79.656,109.78-68.306v22.7l19.659,11.35L149.1-45.606v-22.7Z" transform="translate(14.394 177.817)"/>
        <path id="Path_5181" data-name="Path 5181" class="cls-4" d="M129.439-140.956l-19.659,11.35v22.7l19.659,11.35,19.659-11.35v-22.7Z" transform="translate(14.394 177.817)"/>
        <path id="Path_5183" data-name="Path 5183" class="cls-5" d="M76.352-171.606l-19.659,11.35v22.7l19.659,11.35,19.659-11.35v-22.7Z" transform="translate(14.394 177.817)"/>
        <path id="Path_5187" data-name="Path 5187" class="cls-5" d="M23.264-79.656,3.606-68.306v22.7l19.659,11.35,19.659-11.35v-22.7Z" transform="translate(14.394 177.817)"/>
      </g>
      <path id="Union_125" data-name="Union 125" class="cls-3" d="M-200.912-2196.349v-22.7l19.659-11.35,19.659,11.35v22.7L-181.254-2185Zm4-20.391v18.082l15.659,9.041,15.658-9.041v-18.082l-15.658-9.041ZM-147.826-2227v-22.7l19.66-11.35,19.659,11.35v22.7l-19.659,11.35Zm4-20.39v18.081l15.659,9.041,15.659-9.041v-18.081l-15.659-9.041ZM-254-2227v-22.7l19.659-11.35,19.659,11.35v22.7l-19.659,11.35Zm4-20.39v18.081l15.659,9.041,15.658-9.041v-18.081l-15.658-9.041Zm102.174-40.91V-2311l19.66-11.35,19.659,11.35v22.7l-19.659,11.351Zm4-20.389v18.081l15.659,9.041,15.659-9.041v-18.081l-15.659-9.042ZM-254-2288.3V-2311l19.659-11.35,19.659,11.35v22.7l-19.659,11.351Zm4-20.389v18.081l15.659,9.041,15.658-9.041v-18.081l-15.658-9.042Zm49.088-10.26v-22.7l19.659-11.35,19.659,11.35v22.7l-19.659,11.35Zm4-20.39v18.081l15.659,9.041,15.658-9.041v-18.081l-15.658-9.041Z" transform="translate(272 2359.211)"/>
    </g>
  </g>
</svg>
