<svg xmlns="http://www.w3.org/2000/svg" xmlns:xlink="http://www.w3.org/1999/xlink" viewBox="600 -200 180 180">
  <defs>
    <style>
      .cls-1 {
        clip-path: url(#clip-testnet);
      }

      .cls-2 {
        fill: #fff;
      }

      .cls-3, .cls-5 {
        fill: #a3a9b8;
      }

      .cls-4, .cls-5 {
        stroke: none;
      }
    </style>
    <clipPath id="clip-testnet">
      <rect x="600" y="-200" width="180" height="180"/>
    </clipPath>
  </defs>
  <g id="testnet" class="cls-1">
    <g id="Path_1" data-name="Path 1" class="cls-2" transform="translate(618 -193)">
      <path class="cls-4" d="M 71.94799041748047 163.9500122070312 L 2 123.540153503418 L 2 42.71916580200195 L 71.94799041748047 2.309344530105591 L 142 42.72000503540039 L 142 123.5393142700195 L 71.94799041748047 163.9500122070312 Z"/>
      <path class="cls-5" d="M 71.94870758056641 161.6406707763672 L 140 122.3841247558594 L 140 43.87521362304688 L 71.94870758056641 4.618674755096436 L 4 43.87351608276367 L 4 122.3858184814453 L 71.94870758056641 161.6406707763672 M 71.94725036621094 166.2593383789062 L 0 124.6944961547852 L 0 41.56484603881836 L 71.94725036621094 -5.81054700887762e-06 L 144 41.56484603881836 L 144 124.6944961547852 L 71.94725036621094 166.2593383789062 Z"/>
    </g>
    <path id="bytom_logo_2" data-name="bytom logo_2" class="cls-3" d="M10.218,24.175l3.511-3.528,9.8,9.8L29,29l1-3.72L34.6,20.646l1.4,1.4-2.952,11L22.044,36ZM2.951,33.048,0,22.043l2.218-2.218,9.607-9.607,3.511,3.511-9.782,9.8L7,29l3.72,1L15.336,34.6,13.956,36ZM20.664,22.254l9.782-9.8L29,7.005l-3.721-1L20.646,1.4l1.4-1.4,11,2.952,2.952,11L24.175,25.781ZM12.47,5.554,7,7l-1,3.72L1.4,15.336,0,13.956l2.952-11L13.956,0l2.2,2.218,9.624,9.607-3.527,3.511Z" transform="translate(672 -128)"/>
  </g>
</svg>
